<svg viewBox="0 0 1024 1024" width="200" height="200" xmlns="http://www.w3.org/2000/svg"><path d="M647.166 2.333L78.855 44.179c-45.806 3.96-61.78 33.826-61.78 69.631V734.96c0 27.886 9.966 51.745 33.893 83.625l133.596 173.19c21.948 27.886 41.881 33.86 83.796 31.88l659.958-39.833c55.807-3.96 71.78-29.866 71.78-73.659v-698.8c0-22.63-8.976-29.15-35.395-48.469a1594.684 1594.684 0 01-4.505-3.276L778.782 32.199C734.887.387 716.967-3.641 647.166 2.333zM283.31 199.927c-53.895 3.618-66.115 4.438-96.732-20.377l-77.823-61.712c-7.919-7.987-3.925-17.954 15.974-19.934l546.364-39.798c45.84-3.994 69.767 11.946 87.721 25.872l93.729 67.72c3.993 1.98 13.926 13.892 1.98 13.892l-564.25 33.86-6.963.477zM220.472 904.19V310.961c0-25.906 7.953-37.853 31.88-39.867l648.01-37.819c21.982-1.98 31.95 11.947 31.95 37.82v589.268c0 25.906-3.994 47.82-39.936 49.8l-620.09 35.839c-35.874 1.98-51.814-9.933-51.814-41.813z"/><path d="M324.32 840.8c-6.784 0-12.8-3.494-17.92-10.573a24.512 34.317 0 01-7.552-25.088V418.784c0-9.677 2.56-18.01 7.616-25.088a24.512 34.317 0 0117.92-10.752h25.536a37.12 51.968 0 0134.944 32.704l69.376 236.454c0 .359.128.628.448.628s.448-.27.448-.628l69.44-236.544a37.12 51.968 0 0134.944-32.524h27.328c6.848 0 12.8 3.584 17.92 10.662 5.12 7.078 7.616 15.411 7.616 25.088v386.355c0 9.587-2.56 17.92-7.68 25.088a24.512 34.317 0 01-17.92 10.663h-21.44a25.28 35.392 0 01-25.088-35.75V561.157c0-.448-.128-.627-.448-.627-.64 0-.896.18-.896.627l-43.008 142.375a36.288 50.803 0 01-14.336 23.833 37.12 51.968 0 01-21.12 8.781h-11.584a37.12 51.968 0 01-35.392-32.614l-43.008-142.464c0-.359-.32-.538-.896-.538-.32 0-.448.18-.448.627V805.14c0 9.587-2.56 17.92-7.68 25.088a23.04 32.256 0 01-17.408 10.663H324.32z"/><path d="M396.704 408.48l58.048 197.747L512.8 408.48a50.112 70.157 0 0146.784-43.635h27.328c10.432 0 19.584 5.555 26.944 15.859a37.312 52.237 0 0111.392 37.722V804.96a37.312 52.237 0 01-11.392 37.632 37.312 52.237 0 01-26.944 15.949h-21.504a37.312 52.237 0 01-26.944-15.86l-.32-.358a38.08 53.312 0 01-10.624-37.453V644.845l-19.712 65.408a49.152 68.813 0 01-19.2 31.897 49.92 69.888 0 01-28.032 11.648h-11.648a52.096 72.934 0 01-28.352-11.558l-.256-.18a49.92 69.888 0 01-18.56-31.807l-19.776-65.408V804.96a37.312 52.237 0 01-11.2 37.542 35.84 50.176 0 01-26.688 16.128h-19.712a37.312 52.237 0 01-26.944-15.948 37.312 52.237 0 01-11.392-37.722V418.336c0-14.515 4.032-27.418 11.392-37.632a37.312 52.237 0 0126.944-15.949h25.536a49.92 69.888 0 0146.784 43.635zm-35.136 421.478a24.512 34.317 0 007.616-25.088V560.71c0-.358.128-.537.448-.537.64 0 .896.179.896.537l43.008 142.464a37.12 51.968 0 0035.392 32.615h11.648a37.12 51.968 0 0021.056-8.87 36.288 50.803 0 0014.336-23.834l43.008-142.375c0-.358.32-.537.896-.537.32 0 .448.179.448.537v243.981a25.28 35.392 0 0025.088 35.84h21.504c6.848 0 12.8-3.584 17.92-10.752a24.512 34.317 0 007.616-25.088V418.426c0-9.588-2.56-17.92-7.616-25.088a24.512 34.317 0 00-17.92-10.663h-27.328a37.12 51.968 0 00-34.944 32.704L455.2 651.744c0 .448-.128.717-.448.717s-.448-.269-.448-.717l-69.44-236.365a37.12 51.968 0 00-34.944-32.614h-25.536c-6.848 0-12.8 3.584-17.92 10.752a24.512 34.317 0 00-7.616 25.088V804.87c0 9.677 2.56 18.01 7.616 25.088 5.12 7.168 11.072 10.752 17.92 10.752h19.712a23.04 32.256 0 0017.472-10.752zM764 365.83a51.2 71.68 0 0151.2 71.68l.128 263.604a51.2 71.68 0 01-102.4 0L712.8 437.6a51.2 71.68 0 0151.2-71.68z"/><path d="M875.36 706.4H652.32c-13.44 0-20.928 9.498-13.44 16.845l111.68 157.337a28.16 39.424 0 0027.584 0l111.36-157.427c6.656-7.168-.896-16.755-14.272-16.755z"/></svg>